<svg width="165" height="165" viewBox="0 0 165 165" fill="none" xmlns="http://www.w3.org/2000/svg">
<circle cx="82.5" cy="82.5" r="82.5" fill="url(#paint0_linear)"/>
<mask id="mask0" style="mask-type:alpha" maskUnits="userSpaceOnUse" x="0" y="0" width="165" height="165">
<circle cx="82.5" cy="82.5" r="82.5" fill="#27C5FF"/>
</mask>
<g mask="url(#mask0)">
<path d="M65.6481 76.1302C64.4317 76.941 63.3504 80.1841 65.513 81.2652C67.6755 82.3463 76.5959 82.7516 76.5959 82.7516C76.5959 82.7516 82.1373 80.3193 82.0022 78.5626C81.867 76.8058 74.8388 75.5897 74.2982 75.4545C73.6224 75.3194 65.6481 76.1302 65.6481 76.1302Z" fill="#F9C7A9"/>
<path d="M68.6221 62.617C67.2705 62.617 64.4322 64.644 65.6486 66.8061C66.865 68.8331 74.0284 74.2383 74.0284 74.2383C74.0284 74.2383 79.9753 75.3194 80.7862 73.8329C81.7323 72.2114 76.5963 67.2115 76.0557 66.9412C75.6502 66.4007 68.6221 62.617 68.6221 62.617Z" fill="#F9C7A9"/>
<path d="M96.735 100.859C96.0592 100.184 82.4083 90.9947 82.4083 90.9947L74.9746 88.2921C74.9746 88.2921 69.8386 83.9678 65.7839 88.2921C64.5675 89.6434 60.6479 93.0217 61.1886 93.9676C61.7292 94.9135 64.973 95.7243 66.4597 94.9135C67.9464 94.1027 70.2441 93.8325 70.2441 93.8325L74.7043 99.6431L73.8934 104.102C73.8934 104.102 80.1106 109.778 80.5161 113.156C80.9216 116.535 88.4904 124.913 93.3561 126.669C98.2217 128.426 101.601 135.318 101.601 135.318C101.601 135.318 104.98 114.372 104.439 114.237C104.169 113.967 96.735 100.859 96.735 100.859Z" fill="#F9C7A9"/>
<path d="M101.872 61.9413V113.562V114.372C101.872 116.129 99.0337 118.832 97.6821 118.156L72.9483 100.994C71.5967 100.184 70.5154 98.1567 70.5154 96.4L68.2178 43.9688C68.2178 42.2121 71.5967 41.4013 72.9483 42.2121L75.7866 43.6985L99.4392 57.3468C100.791 58.1576 101.872 60.1846 101.872 61.9413Z" fill="#E4E6ED"/>
<path d="M99.0333 63.5629V115.183V115.994C99.0333 117.751 97.9521 118.562 96.6005 117.751L70.1096 102.616C68.758 101.805 67.6768 99.7783 67.6768 98.0215V45.4552C67.6768 43.6985 68.758 42.8877 70.1096 43.6985L72.9479 45.3201L96.6005 58.9684C97.9521 59.7792 99.0333 61.8062 99.0333 63.5629Z" fill="#CCCED8"/>
<path d="M68.3525 91.9406V48.6984C68.3525 47.3471 69.1635 46.8066 70.1096 47.3471L96.4653 62.617C97.4114 63.1575 98.2223 64.644 98.2223 65.9953V109.237C98.2223 110.589 97.4114 111.129 96.4653 110.589L70.1096 95.3189C69.1635 94.7784 68.3525 93.2919 68.3525 91.9406Z" fill="#E4E6ED"/>
<path d="M97.1411 109.778C96.8708 109.913 96.6005 109.913 96.195 109.778L69.8393 94.373C69.7041 94.2379 69.4338 94.1027 69.2986 93.8325C69.1635 93.6973 69.0283 93.1568 69.0283 92.6163V49.3741C69.0283 48.8335 69.1635 48.4281 69.569 48.1579C69.8393 48.0228 70.1096 48.0228 70.5151 48.1579L96.8708 63.4278C97.0059 63.5629 97.2762 63.698 97.4114 63.9683C97.5466 64.2386 97.6817 64.644 97.6817 65.1845V108.427C97.6817 109.102 97.4114 109.508 97.1411 109.778Z" fill="#0092E6"/>
<path opacity="0.2" d="M99.0333 116.129C99.0333 117.886 97.9521 118.697 96.6005 117.886L70.1096 102.616C68.758 101.805 67.6768 99.7783 67.6768 98.0215V45.4552C67.6768 43.6985 68.758 42.8877 70.1096 43.6985L99.0333 116.129Z" fill="url(#paint1_linear)"/>
<path d="M83.2206 53.8334L78.7603 51.2659C78.49 51.1308 78.2197 50.7254 78.2197 50.32C78.2197 49.9146 78.49 49.7795 78.7603 49.9146L83.0854 52.4821C83.3557 52.6172 83.626 53.0226 83.626 53.428C83.626 53.8334 83.4909 53.9685 83.2206 53.8334Z" fill="#3E343E"/>
<path d="M92.6815 58.4279C92.6815 58.9684 92.276 59.1036 91.8705 58.8333C91.465 58.563 91.0596 57.8874 91.0596 57.482C91.0596 57.0766 91.465 56.8063 91.8705 57.0766C92.276 57.2117 92.6815 57.8874 92.6815 58.4279Z" fill="#78BAC9"/>
<path d="M92.1408 59.5089C91.8705 59.5089 91.7354 59.5089 91.465 59.3738C90.7893 58.9684 90.3838 58.1576 90.3838 57.482C90.3838 57.0766 90.5189 56.6712 90.9244 56.536C91.1947 56.4009 91.6002 56.4009 92.0057 56.536C92.6815 56.9414 93.0869 57.7522 93.0869 58.4279C93.0869 58.8333 92.9518 59.2387 92.5463 59.3738C92.5463 59.5089 92.276 59.5089 92.1408 59.5089ZM91.465 57.482C91.465 57.8874 91.7354 58.2928 92.0057 58.4279C92.1408 58.0225 91.8705 57.6171 91.465 57.482Z" fill="#262424"/>
<path d="M67.6764 60.8603C66.5951 60.3198 65.7842 58.8333 65.7842 57.6171V54.7793L69.4334 56.9415V59.7792C69.4334 60.9954 68.7577 61.4008 67.6764 60.8603Z" fill="#FF6F22"/>
<path d="M71.3264 62.8873C70.2451 62.3467 69.5693 60.8603 69.5693 59.6441V56.8063L73.2186 58.9684V61.8062C73.0834 63.0224 72.2725 63.4278 71.3264 62.8873Z" fill="white"/>
<path d="M74.841 64.9142C73.7598 64.3737 73.084 62.8873 73.084 61.6711V58.8333L76.7332 60.8603V63.6981C76.5981 65.0494 75.9223 65.5899 74.841 64.9142Z" fill="#FF6F22"/>
<path d="M78.4895 67.0763C77.4082 66.5358 76.7324 65.0494 76.7324 63.8332V60.9954L80.3817 63.1575V65.9953C80.2465 67.2115 79.4356 67.6169 78.4895 67.0763Z" fill="white"/>
<path d="M82.0031 69.1033C80.9219 68.5628 80.2461 67.0763 80.2461 65.8602V63.0224L83.8953 65.1845V68.0223C83.8953 69.2385 83.0844 69.6439 82.0031 69.1033Z" fill="#FF6F22"/>
<path d="M85.6535 71.1303C84.5723 70.5898 83.8965 69.1033 83.8965 67.8871V65.0494L87.5457 67.2115V70.0492C87.4106 71.2654 86.5996 71.806 85.6535 71.1303Z" fill="white"/>
<path d="M89.1672 73.2924C88.0859 72.7519 87.4102 71.2654 87.4102 70.0493V67.2115L91.0594 69.3736V72.2114C91.0594 73.4276 90.2485 73.8329 89.1672 73.2924Z" fill="#FF6F22"/>
<path d="M65.7842 54.7793L69.4334 56.9415L74.4343 51.8064L70.9202 49.7795L65.7842 54.7793Z" fill="#F75113"/>
<path d="M69.4336 56.9414L73.0828 58.9684L78.0837 53.8334L74.4344 51.8064L69.4336 56.9414Z" fill="white"/>
<path d="M73.084 58.9684L76.7332 60.9954L81.7341 55.9955L78.0848 53.8334L73.084 58.9684Z" fill="#F75113"/>
<path d="M76.7324 60.9954L80.3817 63.0224L85.2473 58.0225L81.7333 55.9955L76.7324 60.9954Z" fill="white"/>
<path d="M80.2461 63.1575L83.8953 65.1845L88.8962 60.1846L85.2469 58.0225L80.2461 63.1575Z" fill="#F75113"/>
<path d="M83.8965 65.1845L87.5457 67.2115L92.5466 62.0765L88.8973 60.0495L83.8965 65.1845Z" fill="white"/>
<path d="M87.4102 67.2115L91.0594 69.3736L95.9251 64.3737L96.0602 64.2386H95.9251L92.5461 62.2116L87.4102 67.2115Z" fill="#F75113"/>
<path d="M91.0596 69.3736V72.6167L95.9252 70.3195V64.3737L91.0596 69.3736Z" fill="#CC2B00"/>
<path d="M89.9779 98.5621L74.0293 89.3731V68.0223L89.9779 77.2112V98.5621Z" fill="#CC2B00"/>
<path d="M99.5738 77.0761C99.5738 77.0761 96.7355 78.2923 96.8707 83.2922C97.0059 88.292 99.5738 93.1568 99.5738 93.1568V101.265C99.5738 101.265 95.2488 113.291 95.384 117.616C95.6543 121.94 99.0332 129.642 99.5738 133.967C99.9793 138.291 95.384 166.398 95.384 166.398C95.384 166.398 97.6816 171.398 109.035 171.263C118.361 171.128 120.658 166.398 120.658 166.398C120.658 166.398 123.091 133.291 122.551 128.426C122.01 123.561 113.225 102.211 113.225 102.211C113.225 102.211 110.386 98.5621 110.522 95.454C110.792 90.5893 107.143 84.103 105.25 82.3462C103.899 81.1301 103.358 76.5356 102.277 76.6707C101.196 76.8058 99.5738 77.0761 99.5738 77.0761Z" fill="#FFD2B3"/>
<path d="M99.0342 79.3733C99.0342 79.3733 99.71 78.6977 100.791 77.7518C101.872 76.8058 103.224 76.6707 103.224 76.6707C103.224 76.6707 105.387 82.4814 104.846 82.7516C104.305 83.0219 103.494 84.6435 102.008 84.3732C99.0342 83.9678 99.0342 79.3733 99.0342 79.3733Z" fill="#FF6F22"/>
<path d="M49.0244 109.237C49.0244 109.237 51.5923 118.832 51.1869 121.94C50.7814 125.048 43.3477 133.156 41.3204 132.345C39.293 131.399 40.9149 114.372 49.0244 109.237Z" fill="#F9C7A9"/>
<path d="M-35.0434 160.858C-36.2598 158.155 -9.76891 129.102 -7.47123 128.021C-5.17355 126.94 -4.63292 126.94 -2.4704 125.048C-0.307877 123.156 4.01717 117.616 5.63906 116.399C7.26094 115.048 19.4251 103.427 21.4525 102.616C23.4798 101.805 25.3721 101.805 25.3721 101.805C25.3721 101.805 27.8049 99.3729 29.4268 98.9675C31.0487 98.5621 33.4815 98.9675 33.4815 98.9675C33.4815 98.9675 35.5089 97.7513 38.4823 97.2107C40.6449 96.8054 44.159 100.454 44.159 100.454C44.159 100.454 52.809 93.5622 54.4309 91.2649C56.0528 88.9677 62.5404 86.6705 63.7568 85.3191C64.9732 83.9678 70.5147 82.2111 71.4608 81.2652C72.542 80.3193 74.5694 79.5085 75.7858 82.2111C77.0022 84.9137 74.0288 89.238 72.0014 90.5893C70.1092 91.9406 61.5943 99.508 61.5943 99.508L52.809 108.697C52.809 108.697 46.8621 117.21 45.7808 120.724C44.6996 124.237 42.1316 130.183 44.4293 131.399C46.7269 132.615 54.9715 131.534 54.9715 131.534C54.9715 131.534 59.4318 128.021 62.6755 127.751C65.7842 127.48 70.6498 128.291 71.1905 129.642C71.7311 130.994 73.353 133.156 69.0279 134.913C64.7029 136.804 62.1349 141.129 60.1075 141.129C58.2153 141.129 48.484 143.696 45.6457 144.912C42.8074 146.128 41.3206 146.804 34.2924 145.723C27.1291 144.642 19.5603 147.074 13.7485 147.074C7.93673 147.074 -7.20091 171.398 -7.20091 171.398C-7.20091 171.398 -27.6097 176.668 -35.0434 160.858Z" fill="#FFD2B3"/>
<path d="M68.7578 82.3462C68.7578 82.3462 69.4336 83.6976 71.7313 83.6976C74.029 83.6976 75.6509 81.9409 75.6509 81.9409C75.6509 81.9409 75.3805 79.2382 73.218 79.9139C71.0555 80.5895 68.7578 82.3462 68.7578 82.3462Z" fill="#FF6F22"/>
<path d="M65.6495 135.453C65.6495 135.453 64.298 133.561 65.6495 131.399C66.1902 130.453 69.8394 128.291 70.2449 128.561C70.6504 128.832 72.1371 129.372 72.1371 131.264C72.1371 133.156 69.2988 134.372 68.4878 134.777C67.6769 135.183 66.1902 136.94 65.6495 135.453Z" fill="#FF6F22"/>
</g>
<defs>
<linearGradient id="paint0_linear" x1="82.5" y1="0" x2="82.5" y2="165" gradientUnits="userSpaceOnUse">
<stop stop-color="#FFC100"/>
<stop stop-color="#FFC100"/>
<stop offset="1" stop-color="#FF5722"/>
</linearGradient>
<linearGradient id="paint1_linear" x1="60.3135" y1="53.5137" x2="52.865" y2="129.533" gradientUnits="userSpaceOnUse">
<stop stop-color="#94E2E4"/>
<stop offset="0.1467" stop-color="#92DEE0"/>
<stop offset="0.2802" stop-color="#8AD3D5"/>
<stop offset="0.4087" stop-color="#7EC1C3"/>
<stop offset="0.534" stop-color="#6EA7A9"/>
<stop offset="0.6572" stop-color="#588687"/>
<stop offset="0.7786" stop-color="#3D5D5E"/>
<stop offset="0.8963" stop-color="#1E2E2E"/>
<stop offset="0.9947"/>
</linearGradient>
</defs>
</svg>
