<svg width="165" height="165" viewBox="0 0 165 165" fill="none" xmlns="http://www.w3.org/2000/svg">
<circle cx="82.5" cy="82.5" r="82.5" fill="url(#paint0_linear)"/>
<mask id="mask0" style="mask-type:alpha" maskUnits="userSpaceOnUse" x="0" y="0" width="165" height="165">
<circle cx="82.5" cy="82.5" r="82.5" fill="url(#paint1_linear)"/>
</mask>
<g mask="url(#mask0)">
<path d="M70.3535 137.684L104.795 117.699V111.951L70.3535 131.937V137.684Z" fill="#B4B7C2"/>
<path d="M70.3533 137.684L52.4805 127.365V121.618L70.3533 131.937V137.684Z" fill="#A0A2B0"/>
<path d="M70.3543 132.068L104.795 112.082L86.9226 101.763L52.4814 121.748L70.3543 132.068Z" fill="#DDDFE6"/>
<path d="M39.827 138.076C40.7402 138.076 41.6534 137.815 42.5666 137.293L118.494 93.4026C121.233 91.8351 123.321 88.0469 123.321 84.5201L125.017 31.7475C125.017 27.8288 120.842 26 118.494 26C117.581 26 116.667 26.2613 115.754 26.7838L39.827 70.5432C37.0873 72.1107 35 75.8988 35 79.4257V132.198C35 136.248 37.4787 138.076 39.827 138.076Z" fill="#DDDFE6"/>
<path d="M42.1746 139.383C43.0879 139.383 44.0011 139.121 44.9143 138.599L120.841 94.7088C123.581 93.1413 125.668 89.3532 125.668 85.8263V33.0538C125.668 29.135 123.19 27.3063 120.841 27.3063C119.928 27.3063 119.015 27.5675 118.102 28.09L42.1746 71.8494C39.435 73.4169 37.3477 77.2051 37.3477 80.7319V133.505C37.3477 137.685 39.9568 139.383 42.1746 139.383Z" fill="#B4B7C2"/>
<path d="M40.2188 80.8626V133.635C40.2188 134.549 40.4797 135.333 40.7406 135.725C41.3929 136.639 42.4366 136.77 43.6107 136.117L119.538 92.2269C121.364 91.1819 122.93 88.1776 122.93 85.6957V33.0538C122.93 31.3556 122.277 30.3106 121.234 30.0494C120.712 29.9188 120.06 30.0494 119.538 30.4413L43.6107 74.3313C41.6538 75.3763 40.2188 78.25 40.2188 80.8626Z" fill="#8B8D9E"/>
<path d="M40.2188 80.8626V133.635C40.2188 134.549 40.4797 135.333 40.7406 135.725C41.2624 135.856 41.9147 135.725 42.4366 135.333L118.364 91.4432C120.19 90.3982 121.756 87.3938 121.756 84.9119V32.27C121.756 31.3556 121.495 30.5719 121.234 30.0494C120.712 29.9188 120.06 30.0494 119.538 30.4413L43.6107 74.3313C41.6538 75.3763 40.2188 78.25 40.2188 80.8626Z" fill="white"/>
<path d="M117.451 50.035L46.6113 90.9207V81.9075L117.451 41.0219V50.035Z" fill="#FF6F22"/>
<path d="M70.616 111.298L49.2207 123.708V99.15L70.616 86.8713V111.298Z" fill="#FBCA23"/>
<path d="M114.842 65.8406L77.2695 87.5244V82.9525L114.842 61.2688V65.8406Z" fill="#0092E6"/>
<path d="M102.578 85.9569L77.1387 100.718V96.0151L102.578 81.385V85.9569Z" fill="#181828"/>
<path d="M112.36 119.266C112.36 119.266 110.273 123.446 111.186 125.014C112.099 126.581 117.448 129.716 117.97 130.108C118.492 130.369 119.927 128.933 120.188 127.234C120.318 125.536 118.492 122.924 118.492 122.924L120.188 119.266L129.45 117.568C129.45 117.568 135.973 115.478 134.277 111.429C132.582 107.379 121.492 109.469 121.492 109.469L112.36 119.266Z" fill="#EDB296"/>
<path d="M109.491 116.001C109.491 116.001 107.534 118.874 109.491 120.703C111.448 122.532 117.579 127.888 119.145 127.104C120.71 126.32 121.102 122.532 120.188 121.618C119.275 120.703 116.797 117.96 116.797 117.96C116.797 117.96 116.797 115.348 116.797 114.825C116.797 114.303 125.276 110.514 125.276 110.514C125.276 110.514 129.712 111.951 130.234 111.69C130.756 111.429 134.148 99.1501 129.06 98.8888C123.972 98.7582 113.013 102.285 112.491 103.461C111.839 104.767 109.491 116.001 109.491 116.001Z" fill="#F7C3B0"/>
<path d="M194.681 136.901C194.681 136.901 187.506 136.901 183.592 139.121C179.678 141.342 174.329 152.184 174.329 152.184L161.153 137.815C161.153 137.815 158.022 138.076 153.456 137.815C148.89 137.554 140.28 127.104 140.28 127.104L135.061 124.753C135.061 124.753 135.061 124.361 133.496 125.406C131.93 126.451 128.277 125.406 128.277 125.406L127.234 127.757C127.234 127.757 128.147 128.671 128.669 130.631C129.191 132.59 127.625 134.288 126.973 134.68C126.321 135.072 123.45 131.806 121.885 130.5C120.45 129.194 122.407 121.748 122.929 120.05C123.45 118.352 126.581 118.613 126.581 118.613C126.581 118.613 131.147 118.874 129.191 115.609C128.799 114.825 128.408 113.78 128.016 112.474C126.973 108.555 126.712 103.199 126.712 102.938C126.712 102.677 120.972 101.501 120.972 101.501L113.536 107.641L113.275 107.902C113.275 107.902 113.275 110.776 113.796 114.041C114.318 117.307 111.97 118.613 109.23 119.136C106.491 119.658 107.143 117.96 107.013 116.131C106.882 114.303 105.317 108.555 104.925 106.334C104.795 105.551 105.317 104.114 106.099 102.416C106.882 100.587 107.926 98.6276 108.839 96.9294C109.622 95.4926 110.144 94.3169 110.274 94.0557C110.535 93.0107 135.061 90.3982 135.844 90.3982C136.627 90.3982 148.89 94.3169 150.586 95.3619C151.238 95.7538 153.847 98.1051 156.978 100.848C162.327 105.681 169.242 111.821 169.242 111.821L194.681 136.901Z" fill="#F9C7A9"/>
<path d="M114.058 124.622C114.058 124.622 113.144 122.532 115.101 122.532C117.058 122.532 117.58 124.622 117.58 124.622C117.58 124.622 117.971 126.973 117.58 126.843C117.189 126.712 114.188 125.144 114.058 124.622Z" fill="#FF6F22"/>
<path d="M114.318 127.757C114.318 127.757 114.188 125.014 115.753 126.059C117.71 127.234 117.84 127.757 117.84 127.757C117.84 127.757 117.58 129.847 118.232 130.5C118.362 130.892 114.84 128.541 114.318 127.757Z" fill="#FF6F22"/>
<path d="M106.49 113.127C106.49 113.127 106.49 112.213 107.273 113.127C107.795 113.78 108.578 116.262 108.578 116.262C108.578 116.262 107.664 117.176 107.534 117.96C107.403 118.874 107.403 118.874 107.403 118.874C107.403 118.874 106.49 114.041 106.49 113.127Z" fill="#FF6F22"/>
<path d="M123.842 132.59C123.45 132.068 122.929 130.892 123.581 130.369C124.233 129.847 125.929 131.284 125.929 131.284C125.929 131.284 125.668 132.721 125.929 133.504C126.19 134.288 126.451 134.419 126.451 134.419C126.451 134.419 124.364 133.243 123.842 132.59Z" fill="#FF6F22"/>
<path d="M129.06 104.767L113.535 113.78C112.883 114.172 111.709 114.172 110.926 113.78L83.5294 97.9744C82.7467 97.5825 82.7467 96.9294 83.5294 96.4069L99.0541 87.3938C99.7064 87.0019 100.88 87.0019 101.663 87.3938L128.929 103.33C129.712 103.722 129.712 104.375 129.06 104.767Z" fill="#7DA400"/>
<path d="M129.19 104.375L113.665 113.388C113.013 113.78 111.839 113.78 111.056 113.388L83.7902 97.5826C83.0074 97.1907 83.0074 96.5376 83.7902 96.0151L99.3148 87.0019C99.9671 86.61 101.141 86.61 101.924 87.0019L129.19 102.938C129.842 103.33 129.842 103.983 129.19 104.375Z" fill="#ABC701"/>
<path d="M95.923 93.1414L94.6184 92.3576C94.0966 92.6189 94.0966 93.1414 94.488 93.4026L98.0104 95.4926C98.4017 95.7539 99.1845 95.7539 99.7063 95.362L98.1408 94.4476L95.923 93.1414Z" fill="#FFC021"/>
<path d="M97.7491 92.7495L96.8359 93.272L98.0101 94.0557L98.9233 93.5332L99.9669 92.8801L101.011 92.3576L99.8365 91.5738L98.6624 92.227L97.7491 92.7495Z" fill="#FFC021"/>
<path d="M101.01 94.5782L101.663 94.1864L100.227 93.272L99.5752 93.6639L101.01 94.5782Z" fill="#FFC021"/>
<path d="M98.4014 94.317L99.9669 95.1007L100.88 94.7088L99.3146 93.7945L98.4014 94.317Z" fill="#FFC021"/>
<path d="M101.923 94.0557L102.315 93.7945C102.576 93.6639 102.576 93.272 102.184 93.0107L101.532 92.6188L100.488 93.1413L101.923 94.0557Z" fill="#FFC021"/>
<path d="M95.9229 91.5739L96.7056 91.182L98.1407 92.0964L97.4884 92.4882L95.9229 91.5739Z" fill="#FFC021"/>
<path d="M96.3149 93.1414L94.8799 92.227L95.7931 91.7045L97.2281 92.6189L96.3149 93.1414Z" fill="#FFC021"/>
<path d="M96.8359 91.0514L97.2273 90.7901C97.4882 90.6595 98.1405 90.6595 98.5319 90.9207L99.3147 91.3126L98.271 91.8351L96.8359 91.0514Z" fill="#FFC021"/>
<path d="M95.5318 97.8438L90.3135 94.7088L92.0094 93.7945L97.2278 96.7988L95.5318 97.8438Z" fill="#0092E6"/>
<path d="M101.923 101.501L96.7051 98.497L98.401 97.452L103.619 100.456L101.923 101.501Z" fill="#0092E6"/>
<path d="M108.316 105.159L103.098 102.154L104.794 101.109L110.012 104.244L108.316 105.159Z" fill="#0092E6"/>
<path d="M114.708 108.816L109.489 105.812L111.185 104.898L116.404 107.902L114.708 108.816Z" fill="#0092E6"/>
<path d="M89.9215 98.2357L86.9209 96.5376L88.356 95.6232L91.487 97.452L89.9215 98.2357Z" fill="#0092E6"/>
<path d="M102.315 105.551L100.619 104.636L102.446 103.591L104.011 104.636L102.315 105.551Z" fill="#0092E6"/>
<path d="M104.532 106.857L102.967 105.943L104.663 105.028L106.228 105.943L104.532 106.857Z" fill="#0092E6"/>
<path d="M96.7054 102.154L90.4434 98.497L92.0089 97.7132L98.1404 101.24L96.7054 102.154Z" fill="#0092E6"/>
<path d="M194.681 136.901C194.681 136.901 199.117 143.04 192.985 150.355C189.071 154.927 174.329 152.184 174.329 152.184L161.153 137.815C161.153 137.815 158.935 133.504 153.586 132.59C148.238 131.545 134.409 117.829 134.018 116.523C133.757 115.87 131.017 114.303 128.147 112.604C124.494 110.514 120.319 108.424 120.319 108.424C120.319 108.424 116.667 108.816 113.536 107.771C112.883 107.51 112.231 107.249 111.709 106.857C109.23 105.289 107.013 104.506 106.23 102.416C105.969 101.763 105.969 100.848 106.099 99.8032C106.36 97.9744 107.534 97.1907 108.969 96.9294C110.926 96.6682 113.536 97.3213 115.492 97.5826C118.754 97.9744 121.494 97.1907 122.929 97.5826C124.364 97.9744 129.06 100.456 132.452 101.371C135.844 102.285 137.931 102.154 142.497 101.893C147.063 101.632 155.674 101.371 155.674 101.371C155.674 101.371 156.196 101.109 156.978 100.848C162.327 105.681 169.242 111.821 169.242 111.821L194.681 136.901Z" fill="#FFD2B3"/>
<path d="M105.316 100.456C105.577 101.632 107.534 102.808 109.23 103.069C110.926 103.33 111.578 102.677 111.97 101.763C112.361 100.848 113.796 99.1501 113.535 98.497C113.405 97.8438 108.578 96.7988 107.926 96.7988C107.273 96.7988 104.403 97.0601 105.316 100.456Z" fill="#FF6F22"/>
</g>
<defs>
<linearGradient id="paint0_linear" x1="82.5" y1="0" x2="82.5" y2="165" gradientUnits="userSpaceOnUse">
<stop stop-color="#FFC100"/>
<stop stop-color="#FFC100"/>
<stop offset="1" stop-color="#FF5722"/>
</linearGradient>
<linearGradient id="paint1_linear" x1="82.5" y1="0" x2="82.5" y2="165" gradientUnits="userSpaceOnUse">
<stop stop-color="#FFC100"/>
<stop stop-color="#FFC100"/>
<stop offset="1" stop-color="#FF5722"/>
</linearGradient>
</defs>
</svg>
