<svg width="165" height="165" viewBox="0 0 165 165" fill="none" xmlns="http://www.w3.org/2000/svg">
<circle cx="82.5" cy="82.5" r="82.5" fill="url(#paint0_linear)"/>
<path d="M100.401 141.675C94.5419 145.05 84.777 145.05 78.918 141.675C72.8815 138.3 72.8815 132.616 78.918 129.241C84.777 125.866 94.5419 125.866 100.401 129.241C106.26 132.794 106.26 138.3 100.401 141.675Z" fill="#030202"/>
<path d="M85.3098 39.3635C85.3098 39.3635 84.4221 36.3439 83.0017 36.1663C79.8059 36.1663 77.6754 38.1202 77.3203 40.074C76.7876 42.2055 74.1245 49.3104 74.1245 49.3104C74.1245 49.3104 71.2838 52.33 69.6859 53.751C68.088 54.9944 72.1715 59.2574 74.6571 57.6587C86.5526 49.3105 85.3098 39.3635 85.3098 39.3635Z" fill="#F75113"/>
<path d="M67.5555 62.0993C67.5555 62.0993 65.2474 63.5203 64.3597 64.0531C63.472 64.586 60.2762 65.6517 60.0986 66.3622C59.9211 67.0727 59.9211 69.9147 60.6313 70.0923C61.3414 70.27 64.0046 70.4476 64.1822 70.27C64.3597 70.0923 66.4902 68.3161 67.2004 67.9608C67.7331 67.6056 68.7983 65.2965 68.7983 65.2965C68.7983 65.2965 74.4797 64.4084 76.0776 63.3426C76.6103 62.9874 77.1429 61.744 76.7878 60.8559C76.4327 59.9678 74.3022 58.7244 73.2369 58.7244C71.639 59.0797 67.9106 61.9217 67.5555 62.0993Z" fill="#E2B791"/>
<path d="M60.6316 69.7371C60.6316 69.7371 61.6969 69.2042 62.2295 69.2042C62.7622 69.2042 62.5846 69.5595 62.5846 69.5595C62.5846 69.5595 63.4724 69.0266 63.6499 69.5595C63.8274 70.0923 63.8274 69.9147 63.8274 69.9147C63.8274 69.9147 64.7152 69.3818 64.8927 69.5595C65.2478 69.7371 64.8927 70.27 64.8927 70.27C64.8927 70.27 65.7804 69.3818 65.958 69.7371C66.1355 70.0923 65.0703 71.3357 64.5376 71.5133C64.1825 71.6909 63.8274 71.3357 63.8274 71.3357C63.8274 71.3357 63.1173 71.8686 62.9397 71.6909C62.7622 71.5133 62.7622 71.5133 62.7622 71.5133C62.7622 71.5133 62.052 71.6909 61.8745 71.5133C61.6969 71.3357 61.6969 71.3357 61.6969 71.3357C61.6969 71.3357 61.1643 71.1581 60.8092 71.1581C60.4541 70.9805 60.4541 69.7371 60.4541 69.7371H60.6316Z" fill="#EFC9A3"/>
<path d="M63.6496 60.856L63.4721 62.9875C63.4721 62.9875 62.9395 64.2309 62.7619 64.4085C62.5844 64.5861 61.5191 65.119 61.6966 65.4743C61.6966 65.8295 63.2945 65.2966 63.6496 65.119C63.8272 65.119 65.6026 63.5204 65.6026 63.5204C65.6026 63.5204 68.0882 62.277 67.7332 61.2113C67.2005 60.6784 67.2005 60.1456 67.2005 59.6127C67.2005 59.0798 66.6679 58.7246 66.3128 58.9022C65.2475 59.2574 64.0047 59.9679 63.6496 60.856Z" fill="#EFC9A3"/>
<path d="M83.357 125.156C83.357 125.156 81.404 128.353 79.2735 128.531C77.143 128.708 74.4798 131.55 74.3022 132.616C73.9472 133.682 73.9472 135.28 76.6103 135.813C80.5163 136.524 83.357 132.083 85.31 131.905C87.263 131.728 91.169 130.484 91.3465 129.241C91.3465 127.998 90.2813 124.623 90.2813 124.623C90.2813 124.623 86.1977 126.577 85.1325 126.221C84.0672 126.044 83.357 125.156 83.357 125.156Z" fill="#4D4F61"/>
<path d="M83.357 124.445C83.357 124.445 81.404 127.642 79.2735 127.82C77.143 127.998 74.4798 130.84 74.3022 131.905C73.9472 132.971 73.9472 134.57 76.6103 135.103C80.5163 135.813 83.357 131.373 85.31 131.195C87.263 131.017 91.169 129.774 91.3465 128.531C91.3465 127.287 90.2813 123.912 90.2813 123.912C90.2813 123.912 86.1977 125.866 85.1325 125.511C84.0672 125.333 83.357 124.445 83.357 124.445Z" fill="#0092E6"/>
<path d="M83.3568 124.445C83.3568 124.445 81.0487 127.11 80.5161 127.465C79.9834 127.642 77.8529 129.063 79.2733 129.596C80.6936 130.129 83.8894 127.998 84.7771 126.221C85.3098 124.978 83.3568 124.445 83.3568 124.445Z" fill="#69D3FF"/>
<path d="M95.252 132.794C95.252 132.794 90.9909 138.122 89.7481 138.833C88.5053 139.543 88.6828 142.03 89.0379 143.273C89.5706 144.517 95.0745 144.339 96.8499 142.74C98.6253 141.142 102.354 135.813 102.531 135.28C103.064 133.504 101.999 132.616 101.999 132.616C101.999 132.616 99.3355 133.326 98.4478 133.504C97.9152 133.682 95.252 132.794 95.252 132.794Z" fill="#4D4F61"/>
<path d="M95.2518 131.905C95.2518 131.905 92.056 137.234 90.6356 137.945C89.3928 138.655 88.6826 141.142 89.0377 142.385C89.5703 143.628 95.0742 143.451 96.8497 141.852C98.6251 140.254 102.176 135.28 102.354 134.214C102.709 132.438 101.466 130.307 101.466 130.307C101.466 130.307 99.3353 132.616 98.6251 132.793C97.7374 132.971 95.2518 131.905 95.2518 131.905Z" fill="#0092E6"/>
<path d="M95.785 131.55C95.785 131.55 93.1219 136.346 92.7668 137.234C92.4117 137.945 94.1871 138.3 95.4299 137.412C96.6727 136.524 97.5605 131.905 97.5605 131.905C97.5605 131.905 96.1401 130.84 95.785 131.55Z" fill="#69D3FF"/>
<path d="M81.0486 71.3358C81.0486 71.3358 79.8058 78.4408 79.6282 82.3485C79.4507 86.0786 81.9363 104.907 81.9363 105.972C81.9363 107.038 83.0016 111.479 82.824 112.189C82.6465 112.9 82.4689 116.452 82.824 117.34C83.1791 118.228 83.1791 119.117 83.1791 120.715C83.1791 122.314 82.2914 124.623 82.824 125.156C83.1791 125.866 85.1321 127.287 87.9728 126.577C90.8135 125.866 91.3462 123.912 91.3462 123.912C91.3462 123.912 91.8788 118.051 91.3462 117.696C90.8135 117.34 92.7665 117.518 92.589 115.564C92.4114 113.61 92.4114 108.814 92.4114 108.814L91.3462 102.775L92.589 99.4003L90.8135 83.7695L90.2809 76.6645C90.2809 76.6645 84.5995 76.3093 82.6465 74.1778C80.871 72.0463 81.0486 71.3358 81.0486 71.3358Z" fill="#F23900"/>
<path d="M86.375 75.9539C86.375 75.9539 88.5055 98.8674 89.9259 100.999C91.3462 103.13 91.7013 105.439 91.8789 106.683C92.0564 107.926 94.8971 110.235 94.3645 112.367C93.8319 114.498 95.2522 118.406 94.8971 120.36C94.5421 122.491 94.0094 131.55 94.542 132.616C95.0747 133.682 98.6256 134.214 100.934 132.616C103.242 131.017 103.242 129.596 103.242 128.53C103.242 127.465 101.466 126.044 102.354 125.156C103.242 124.268 104.485 113.255 104.129 112.189C103.774 110.946 102.709 107.749 102.354 106.505C101.999 105.439 102.709 104.374 101.999 102.775C101.289 101.176 102.709 100.288 102.709 99.4002C102.709 98.5121 104.129 78.6183 103.419 76.8421C102.709 75.0658 101.644 72.5791 101.644 72.5791C101.644 72.5791 95.0747 74.8882 94.542 75.2435C94.0094 75.5987 86.375 75.9539 86.375 75.9539Z" fill="#F75113"/>
<path d="M84.9546 36.1664C84.9546 36.1664 81.2262 35.9888 80.6935 38.4755C80.1609 40.9623 77.6753 51.0868 78.9181 54.6393C80.1609 58.1917 80.8711 65.4743 80.8711 66.8953C80.6935 68.3163 81.0486 69.2044 81.0486 71.1583C81.0486 73.1121 82.8241 75.5988 86.9076 76.487C90.8136 77.3751 94.7195 75.4212 98.0929 73.645C101.466 71.8688 101.821 69.9149 101.821 69.9149C101.821 69.9149 104.307 66.3624 103.064 64.9414C101.644 63.5204 101.289 63.1652 101.999 60.3232C102.709 57.4813 103.064 53.0407 103.064 53.0407C103.064 53.0407 103.597 44.3371 101.466 42.028C99.3357 39.8965 93.8318 37.9427 93.8318 37.9427L84.9546 36.1664Z" fill="#CC2B00"/>
<path d="M86.3759 47.0015C86.3759 47.0015 85.1331 50.0211 84.6004 53.2183C84.2454 56.4155 85.1331 73.645 85.1331 73.645L86.5534 74.1778C86.5534 74.1778 85.4882 57.4812 86.1983 52.5078C86.3759 50.3763 87.2636 47.3567 87.2636 47.3567L86.3759 47.0015Z" fill="#CC2B00"/>
<path d="M86.5526 47.0015C86.5526 47.0015 85.3098 50.0211 84.7772 53.2183C84.4221 56.4155 85.3098 73.645 85.3098 73.645L86.7302 74.1778C86.7302 74.1778 85.6649 57.4812 86.3751 52.5078C86.5526 50.3763 87.4404 47.3567 87.4404 47.3567L86.5526 47.0015Z" fill="#F75113"/>
<path d="M83.1793 39.8964L85.1323 37.9426H86.5526L93.832 38.1202C93.832 38.1202 94.8972 38.4754 94.7197 39.8964C94.5421 41.3174 92.0565 45.2251 91.7014 45.4027C91.3463 45.5804 86.5526 47.0014 86.5526 47.0014C86.5526 47.0014 83.0017 43.9818 83.1793 42.3832C83.1793 40.9622 83.1793 39.8964 83.1793 39.8964Z" fill="#199DE6"/>
<path d="M86.1973 35.8111C85.6647 35.8111 84.2444 39.7188 84.2444 42.2056C84.2444 44.6923 86.5524 47.0014 86.5524 47.0014C86.5524 47.0014 92.2339 44.6923 93.2991 41.8503C94.5419 39.0083 93.6542 37.9426 93.6542 37.9426C93.6542 37.9426 92.7665 36.5216 93.6542 36.1664C94.5419 35.8111 96.85 38.4755 96.85 39.3636C97.0276 40.2517 96.3174 44.1594 96.3174 44.1594L94.0093 43.8042L93.1216 46.6462L86.73 47.5343L81.9363 43.8042L82.824 42.2056C82.824 42.2056 81.4036 41.8503 81.0486 41.6727C80.6935 41.4951 82.824 39.3636 83.1791 38.2979C83.1791 37.2321 86.1973 35.8111 86.1973 35.8111Z" fill="#F75113"/>
<path d="M85.4873 35.8112L86.375 42.2056C86.375 42.2056 86.9077 44.1595 88.328 43.2713C89.7484 42.3832 92.234 41.1399 92.7666 39.5412C93.2993 38.1203 93.4768 37.765 93.4768 37.765C93.4768 37.765 93.1217 37.4098 92.9442 35.9888C92.7666 34.5678 92.7666 32.9692 92.7666 32.9692L85.4873 35.8112Z" fill="#E2B791"/>
<path d="M82.825 26.7524C82.6475 26.93 81.5822 30.1272 81.7597 30.8377C82.1148 31.5482 81.4046 32.2587 81.7597 32.614C82.1148 32.9692 82.2924 35.8112 82.4699 36.1664C82.6475 37.4098 83.0025 38.6532 83.1801 38.6532C83.3576 38.6532 84.9555 39.3637 85.6657 39.186C86.3759 39.0084 91.3471 36.6993 91.8798 35.8112C92.4124 34.9231 94.7205 33.1468 94.5429 32.2587C94.3654 31.3706 94.1879 31.193 94.1879 31.193C94.1879 31.193 96.6735 23.9104 91.8798 22.3118C85.8433 20.0027 84.4229 24.088 82.825 26.7524Z" fill="#EFC9A3"/>
<path d="M81.9364 27.4629C81.9364 27.4629 77.1427 30.3049 77.3202 31.0154C77.4978 31.7259 81.9364 33.5021 83.1792 33.3245C84.2445 33.1468 89.5708 30.4825 89.5708 30.4825C89.5708 30.4825 86.0199 29.9496 83.8894 29.0615C82.8241 28.5286 81.9364 27.4629 81.9364 27.4629Z" fill="#F75113"/>
<path d="M81.9355 27.4628C81.9355 27.4628 82.2906 23.3775 85.4864 21.9565C88.6822 20.3579 90.9903 21.246 90.9903 21.246C90.9903 21.246 95.0738 22.3118 95.6065 26.7523C95.9616 29.9496 95.0738 31.1929 95.0738 31.1929C95.0738 31.1929 91.7005 30.8377 88.5047 30.3048C82.8233 29.4167 81.9355 27.4628 81.9355 27.4628Z" fill="#FF6F22"/>
<path d="M80.8721 69.9148C80.8721 69.9148 81.9373 73.4673 87.4412 74.533C92.9451 75.5988 97.7388 72.5792 99.1592 71.8687C100.402 71.1582 101.822 69.7372 101.822 69.7372V72.4015C101.822 72.4015 98.8041 77.0197 89.0391 76.3093C82.47 75.7764 80.8721 72.0463 80.8721 72.0463V69.9148Z" fill="#181828"/>
<path d="M85.1338 74.1777V75.954C85.1338 76.3092 85.3113 76.4868 85.6664 76.4868C86.1991 76.6645 87.2643 76.8421 87.4419 76.8421C87.797 76.8421 87.6194 76.6645 87.6194 76.6645L86.1991 76.3092C86.0215 76.3092 85.6664 75.954 85.6664 75.7764V74.8882C85.6664 74.533 85.844 74.3554 86.1991 74.533C86.7317 74.7106 87.6194 74.8882 87.6194 74.8882C87.6194 74.8882 87.9745 74.3554 87.2643 74.1777C86.9092 74.0001 86.1991 74.0001 85.6664 73.8225C85.4889 73.6449 85.1338 73.8225 85.1338 74.1777Z" fill="#5AA3AF"/>
<path d="M84.9561 74.7107L86.3764 75.4212V75.5988L84.9561 75.0659V74.7107Z" fill="#93C6D1"/>
<path d="M83.3565 58.7246C82.4687 58.7246 81.7586 58.547 80.8708 58.547C80.8708 58.547 79.2729 56.9484 78.9179 56.4155C78.0301 54.8169 78.5628 49.6658 78.5628 49.6658C79.628 50.7316 80.8708 51.4421 83.0014 52.3302C83.3565 54.1064 83.3565 56.0603 83.3565 58.7246Z" fill="#F75113"/>
<path d="M93.4772 63.1651C92.5895 63.3427 91.5242 63.5203 90.6365 63.6979C90.6365 63.6979 89.0386 62.0993 88.6835 61.5665C87.7958 59.9679 88.3284 54.8168 88.3284 54.8168C89.3937 55.8825 90.9916 56.9483 93.6547 57.3035C93.8323 59.2574 94.1874 61.3888 93.4772 63.1651Z" fill="#F75113"/>
<path d="M71.9937 63.698L61.5186 57.6588L74.6569 50.021L85.132 56.0602L71.9937 63.698Z" fill="#E4E6ED"/>
<path d="M71.9937 75.9541L61.5186 69.9149V57.6589L71.9937 63.6981V75.9541Z" fill="#E4E6ED"/>
<path d="M71.9937 75.954L61.5186 69.9149V57.8365L71.9937 64.0533V75.954Z" fill="#030202"/>
<path d="M66.6673 60.6784L61.5186 57.6588L74.6569 50.021L79.8056 53.0406L66.6673 60.6784Z" fill="#E4E6ED"/>
<path d="M71.9935 63.6981L66.8447 60.8561L79.983 53.2183L85.1318 56.0603L71.9935 63.6981Z" fill="#E4E6ED"/>
<path d="M85.1324 68.3163L71.9941 75.9541V63.698L85.1324 56.0602V68.3163Z" fill="#D8DAE2"/>
<path d="M61.8736 58.1917L61.5186 58.0141V57.6589L61.8736 58.1917Z" fill="#030202"/>
<path d="M71.9936 64.5861V63.6979H71.4609L71.9936 64.5861Z" fill="#030202"/>
<path opacity="0.54" d="M80.694 53.5735L67.7333 61.0337C67.5557 61.0337 67.5557 61.2113 67.5557 61.3889V73.2897L65.7803 72.2239V60.3232C65.7803 60.1456 65.7803 59.9679 65.9578 59.9679L78.9186 52.5078L80.694 53.5735Z" fill="#CFE9FF"/>
<path d="M78.7411 62.9876L76.7881 64.0533V63.8757L78.7411 62.81V62.9876Z" fill="#2D2E3F"/>
<path d="M76.2545 64.4085L75.0117 65.119V64.9414L76.2545 64.2309V64.4085Z" fill="#2D2E3F"/>
<path d="M75.7219 63.8756L75.5444 64.0532C75.3668 64.2309 75.0117 64.0532 75.0117 63.698V63.1651L76.2545 62.4546V62.9875C76.2545 63.3427 76.077 63.8756 75.7219 63.8756Z" fill="#2D2E3F"/>
<path d="M75.7215 64.5862H75.5439V63.8757L75.7215 63.6981V64.5862Z" fill="#2D2E3F"/>
<path d="M77.3209 63.3428L76.9658 63.5204V62.4547L77.3209 62.0995V63.3428Z" fill="#2D2E3F"/>
<path d="M77.4983 62.0995L76.7881 62.4547L77.1432 61.9218L77.4983 62.0995Z" fill="#2D2E3F"/>
<path d="M78.5629 62.6322L78.0303 62.9875V61.7441L78.5629 61.5665V62.6322Z" fill="#2D2E3F"/>
<path d="M78.7412 61.3889L77.8535 61.9218L78.2086 61.3889H78.7412Z" fill="#2D2E3F"/>
<path d="M74.8346 64.054C74.8346 64.054 74.6571 64.054 74.4795 64.2316C74.302 64.4092 74.1245 64.5869 74.1245 64.5869C74.1245 64.5869 73.9469 64.5869 73.7694 64.7645C73.5918 64.9421 73.4143 65.1197 73.4143 65.1197C73.4143 65.1197 73.2367 65.1197 73.0592 65.2974C72.8816 65.1197 72.7041 65.2974 72.7041 65.2974C72.8816 64.9421 73.2367 64.5869 73.4143 64.4092L73.5918 64.2316L73.9469 64.054H74.1245C74.302 63.8764 74.6571 63.8764 74.8346 64.054Z" fill="#2D2E3F"/>
<path d="M73.4147 66.0071C73.2371 66.1848 73.0596 66.0071 73.0596 65.8295V65.6519C73.0596 65.6519 73.0596 65.4743 73.2371 65.4743H73.4147V65.6519C73.2371 65.8295 73.4147 66.0071 73.4147 66.0071C73.5922 65.8295 73.5922 65.6519 73.5922 65.4743V64.0533C73.5922 64.0533 73.5922 63.8757 73.7697 63.8757H73.9473V65.2967C73.9473 65.6519 73.7697 65.8295 73.4147 66.0071Z" fill="#2D2E3F"/>
<path d="M80.5156 70.2701V67.0729L84.4216 64.7638V67.961L80.5156 70.2701ZM80.8707 67.2505V69.5596L84.0665 67.7834V65.2967L80.8707 67.2505Z" fill="#FCB815"/>
<path d="M84.2433 67.7833L80.6924 69.9148V67.0728L84.2433 65.119V67.7833Z" fill="white"/>
<path d="M83.8886 66.0072L81.0479 67.6058V67.2505L83.8886 65.6519V66.0072Z" fill="#636577"/>
<path d="M83.8886 66.7177L81.0479 68.3163V68.1387L83.8886 66.3624V66.7177Z" fill="#636577"/>
<path d="M83.8886 67.4282L81.0479 69.2044V68.8492L83.8886 67.073V67.4282Z" fill="#636577"/>
<path d="M99.8677 44.3371C98.0922 46.2909 96.3168 47.7119 95.4291 50.1986C94.5413 52.863 91.5231 58.9022 90.4578 60.8561C89.3926 62.8099 89.5701 62.0994 89.215 63.5204C88.8599 64.9414 88.8599 66.7176 89.7476 67.6057C90.4578 68.4939 90.2803 69.382 91.8782 69.5596C93.4761 69.7372 97.5596 66.7176 98.0922 64.2309C98.6249 61.7442 101.11 59.9679 102.353 57.126C103.596 54.284 106.614 52.3301 105.016 47.179C103.241 40.607 101.643 43.2713 99.8677 44.3371Z" fill="#FF6F22"/>
<path d="M90.1031 63.6981C89.2154 64.0533 86.3747 65.4743 85.3094 66.3624C83.3564 67.7834 81.2259 69.7373 79.8055 70.4478C78.7403 70.0925 78.5627 69.5596 77.8525 68.6715C77.1424 67.7834 76.9648 67.7834 76.2546 67.0729C76.2546 67.0729 75.5445 65.2967 75.1894 65.1191C74.4792 64.7638 74.1241 66.54 74.4792 66.8953C74.8343 67.4282 75.3669 68.8491 75.5445 69.382C75.8995 70.0925 75.8995 70.9806 75.722 71.3359C75.1894 72.0464 74.3016 72.7569 73.5915 73.1121C72.8813 73.645 72.3487 73.8226 71.6385 74.1778C71.1058 74.0002 69.863 73.4674 69.3304 73.4674C68.9753 73.4674 68.2651 73.645 68.6202 74.1778C68.9753 74.7107 70.0406 74.8883 70.5732 75.2436C71.1058 75.4212 71.816 75.2436 72.3486 75.2436C72.8813 75.066 73.4139 74.8883 73.9466 74.7107C73.2364 75.066 72.7037 75.4212 72.1711 75.9541C71.816 76.1317 71.2834 76.1317 70.9283 76.3093C70.5732 76.1317 70.2181 75.9541 69.863 76.1317C69.5079 76.3093 69.3304 76.6646 69.863 77.0198C70.3957 77.3751 71.1058 77.5527 71.6385 77.9079C71.9936 77.9079 72.3486 77.7303 72.7037 77.7303C73.0588 77.9079 73.4139 78.0856 73.769 78.0856C74.1241 78.0856 74.3016 77.9079 74.4792 77.9079C75.1894 77.7303 74.6567 78.4408 75.722 77.9079C76.7873 77.3751 79.628 75.2436 80.8708 74.7107C82.1136 74.1778 81.581 74.7107 83.0013 74.0002C84.4217 73.2897 93.1214 70.803 94.0091 69.7373C94.8968 68.6715 95.4294 66.3624 94.8968 65.4743C94.1866 64.5862 90.9908 63.3428 90.1031 63.6981Z" fill="#EFC9A3"/>
<path d="M91.7015 61.2113C91.7015 61.2113 90.8138 59.9679 89.2159 62.0994C87.618 64.2309 88.1507 64.2309 88.1507 64.2309C88.1507 64.2309 91.524 64.4085 91.7015 67.6057C92.0566 70.8029 91.524 71.1582 91.524 71.1582C91.524 71.1582 95.2524 71.1582 96.8503 68.4938C97.5605 67.4281 96.4952 64.7637 96.4952 64.7637C96.4952 64.7637 95.43 61.9218 91.7015 61.2113Z" fill="#CC2B00"/>
<defs>
<linearGradient id="paint0_linear" x1="82.5" y1="0" x2="82.5" y2="165" gradientUnits="userSpaceOnUse">
<stop stop-color="#FFC100"/>
<stop stop-color="#FFC100"/>
<stop offset="1" stop-color="#FF5722"/>
</linearGradient>
</defs>
</svg>
