<svg width="195" height="49" viewBox="0 0 195 49" fill="none" xmlns="http://www.w3.org/2000/svg">
<path d="M94.984 12.132C95.2 11.556 95.524 11.124 95.956 10.836C96.412 10.524 96.916 10.368 97.468 10.368C98.164 10.368 98.752 10.584 99.232 11.016C99.736 11.448 99.988 12.036 99.988 12.78C99.988 13.14 99.916 13.536 99.772 13.968L92.284 34.452C92.068 35.028 91.684 35.484 91.132 35.82C90.604 36.132 90.016 36.288 89.368 36.288C88.72 36.288 88.132 36.132 87.604 35.82C87.076 35.484 86.704 35.028 86.488 34.452L81.124 19.296L75.616 34.452C75.4 35.028 75.028 35.484 74.5 35.82C73.972 36.132 73.384 36.288 72.736 36.288C72.112 36.288 71.524 36.132 70.972 35.82C70.444 35.484 70.072 35.028 69.856 34.452L62.368 13.968C62.224 13.56 62.152 13.176 62.152 12.816C62.152 12.072 62.416 11.484 62.944 11.052C63.472 10.596 64.096 10.368 64.816 10.368C65.392 10.368 65.908 10.524 66.364 10.836C66.844 11.124 67.192 11.556 67.408 12.132L72.952 28.08L78.712 12.204C78.928 11.628 79.264 11.184 79.72 10.872C80.2 10.56 80.704 10.404 81.232 10.404C81.784 10.404 82.288 10.56 82.744 10.872C83.2 11.184 83.536 11.64 83.752 12.24L89.26 28.368L94.984 12.132ZM109.048 17.892C111.64 17.892 113.56 18.528 114.808 19.8C116.056 21.048 116.68 22.968 116.68 25.56V33.696C116.68 34.488 116.452 35.112 115.996 35.568C115.54 36 114.904 36.216 114.088 36.216C113.32 36.216 112.696 35.988 112.216 35.532C111.76 35.052 111.532 34.44 111.532 33.696V33.444C111.172 34.332 110.572 35.028 109.732 35.532C108.892 36.036 107.908 36.288 106.78 36.288C105.58 36.288 104.488 36.048 103.504 35.568C102.544 35.088 101.776 34.416 101.2 33.552C100.648 32.688 100.372 31.728 100.372 30.672C100.372 29.376 100.696 28.356 101.344 27.612C102.016 26.868 103.084 26.328 104.548 25.992C106.012 25.656 108.016 25.488 110.56 25.488H111.496V24.84C111.496 23.832 111.268 23.1 110.812 22.644C110.38 22.188 109.648 21.96 108.616 21.96C107.584 21.96 106.096 22.32 104.152 23.04C103.6 23.304 103.132 23.436 102.748 23.436C102.22 23.436 101.8 23.256 101.488 22.896C101.176 22.512 101.02 22.02 101.02 21.42C101.02 20.94 101.128 20.544 101.344 20.232C101.56 19.92 101.908 19.632 102.388 19.368C103.228 18.912 104.248 18.552 105.448 18.288C106.672 18.024 107.872 17.892 109.048 17.892ZM107.968 32.544C109.024 32.544 109.876 32.196 110.524 31.5C111.172 30.78 111.496 29.856 111.496 28.728V28.116H110.884C108.94 28.116 107.572 28.272 106.78 28.584C106.012 28.896 105.628 29.46 105.628 30.276C105.628 30.948 105.844 31.5 106.276 31.932C106.732 32.34 107.296 32.544 107.968 32.544ZM131.292 17.964C132.012 17.916 132.576 18.084 132.984 18.468C133.416 18.828 133.632 19.38 133.632 20.124C133.632 20.916 133.44 21.504 133.056 21.888C132.672 22.272 131.988 22.512 131.004 22.608L129.924 22.716C128.604 22.86 127.644 23.292 127.044 24.012C126.468 24.732 126.18 25.656 126.18 26.784V33.66C126.18 34.5 125.916 35.136 125.388 35.568C124.884 36 124.248 36.216 123.48 36.216C122.688 36.216 122.028 36 121.5 35.568C120.996 35.136 120.744 34.5 120.744 33.66V20.448C120.744 19.656 121.008 19.044 121.536 18.612C122.064 18.18 122.7 17.964 123.444 17.964C124.164 17.964 124.764 18.18 125.244 18.612C125.724 19.02 125.964 19.596 125.964 20.34V21.312C126.396 20.28 127.044 19.488 127.908 18.936C128.796 18.384 129.756 18.072 130.788 18L131.292 17.964ZM146.137 17.892C147.649 17.892 148.993 18.288 150.169 19.08C151.369 19.848 152.293 20.94 152.941 22.356C153.613 23.748 153.949 25.356 153.949 27.18C153.949 29.004 153.613 30.612 152.941 32.004C152.293 33.372 151.381 34.428 150.205 35.172C149.029 35.916 147.673 36.288 146.137 36.288C144.937 36.288 143.845 36.048 142.861 35.568C141.901 35.064 141.157 34.368 140.629 33.48V40.284C140.629 41.004 140.389 41.58 139.909 42.012C139.429 42.444 138.793 42.66 138.001 42.66C137.161 42.66 136.477 42.432 135.949 41.976C135.445 41.52 135.193 40.92 135.193 40.176V20.52C135.193 19.752 135.433 19.14 135.913 18.684C136.417 18.204 137.077 17.964 137.893 17.964C138.709 17.964 139.357 18.204 139.837 18.684C140.317 19.14 140.557 19.752 140.557 20.52V20.808C141.085 19.896 141.841 19.188 142.825 18.684C143.809 18.156 144.913 17.892 146.137 17.892ZM144.553 32.148C145.825 32.148 146.809 31.728 147.505 30.888C148.201 30.024 148.549 28.788 148.549 27.18C148.549 25.548 148.201 24.288 147.505 23.4C146.809 22.488 145.825 22.032 144.553 22.032C143.281 22.032 142.297 22.476 141.601 23.364C140.905 24.228 140.557 25.476 140.557 27.108C140.557 28.716 140.905 29.964 141.601 30.852C142.297 31.716 143.281 32.148 144.553 32.148ZM165.228 17.892C167.82 17.892 169.74 18.528 170.988 19.8C172.236 21.048 172.86 22.968 172.86 25.56V33.696C172.86 34.488 172.632 35.112 172.176 35.568C171.72 36 171.084 36.216 170.268 36.216C169.5 36.216 168.876 35.988 168.396 35.532C167.94 35.052 167.712 34.44 167.712 33.696V33.444C167.352 34.332 166.752 35.028 165.912 35.532C165.072 36.036 164.088 36.288 162.96 36.288C161.76 36.288 160.668 36.048 159.684 35.568C158.724 35.088 157.956 34.416 157.38 33.552C156.828 32.688 156.552 31.728 156.552 30.672C156.552 29.376 156.876 28.356 157.524 27.612C158.196 26.868 159.264 26.328 160.728 25.992C162.192 25.656 164.196 25.488 166.74 25.488H167.676V24.84C167.676 23.832 167.448 23.1 166.992 22.644C166.56 22.188 165.828 21.96 164.796 21.96C163.764 21.96 162.276 22.32 160.332 23.04C159.78 23.304 159.312 23.436 158.928 23.436C158.4 23.436 157.98 23.256 157.668 22.896C157.356 22.512 157.2 22.02 157.2 21.42C157.2 20.94 157.308 20.544 157.524 20.232C157.74 19.92 158.088 19.632 158.568 19.368C159.408 18.912 160.428 18.552 161.628 18.288C162.852 18.024 164.052 17.892 165.228 17.892ZM164.148 32.544C165.204 32.544 166.056 32.196 166.704 31.5C167.352 30.78 167.676 29.856 167.676 28.728V28.116H167.064C165.12 28.116 163.752 28.272 162.96 28.584C162.192 28.896 161.808 29.46 161.808 30.276C161.808 30.948 162.024 31.5 162.456 31.932C162.912 32.34 163.476 32.544 164.148 32.544ZM193.592 31.788C194.144 32.316 194.42 32.916 194.42 33.588C194.42 34.26 194.168 34.86 193.664 35.388C193.184 35.916 192.62 36.18 191.972 36.18C191.348 36.18 190.772 35.928 190.244 35.424L182.36 28.116V33.624C182.36 34.464 182.096 35.1 181.568 35.532C181.064 35.964 180.428 36.18 179.66 36.18C178.868 36.18 178.208 35.964 177.68 35.532C177.176 35.1 176.924 34.464 176.924 33.624V12.996C176.924 12.156 177.176 11.52 177.68 11.088C178.208 10.656 178.868 10.44 179.66 10.44C180.428 10.44 181.064 10.656 181.568 11.088C182.096 11.52 182.36 12.156 182.36 12.996V25.884L189.56 18.792C190.088 18.264 190.676 18 191.324 18C191.996 18 192.584 18.252 193.088 18.756C193.592 19.236 193.844 19.812 193.844 20.484C193.844 21.108 193.568 21.696 193.016 22.248L188.228 26.82L193.592 31.788Z" fill="white"/>
<path d="M40.1775 14.5702H4.41818C1.71331 14.5702 -0.395572 17 0.0628806 19.7049C0.84225 24.2435 5.33509 27.1318 9.78208 25.9398L15.1001 24.5186C17.9884 23.7392 20.6016 26.3983 19.8222 29.2407L19.5471 30.2493C18.0801 35.659 22.1603 40.9771 27.7993 40.9771H37.2434C39.3981 40.9771 41.2319 39.4183 41.5987 37.3094L44.5328 19.659C44.9912 17 42.9282 14.5702 40.1775 14.5702Z" fill="url(#paint0_linear)"/>
<path d="M13.4494 28.553L4.64708 30.8911C2.95081 31.3496 2.72158 33.6418 4.32617 34.4212L7.48949 35.9799C7.85625 36.1633 8.17717 36.4842 8.36055 36.851L9.91929 40.0143C10.6987 41.5731 12.9909 41.3438 13.4494 39.6934L15.7875 30.8911C16.1542 29.4699 14.8706 28.1862 13.4494 28.553Z" fill="url(#paint1_linear)"/>
<path d="M30.366 12.4613C29.4491 12.4613 28.6698 11.7278 28.6698 10.765V10.7192C28.6698 7.18911 25.7815 4.3467 22.2973 4.3467C18.813 4.3467 15.9248 7.23496 15.9248 10.7192V10.765C15.9248 11.6819 15.1913 12.4613 14.2285 12.4613C13.3116 12.4613 12.5322 11.7278 12.5322 10.765V10.7192C12.5781 5.3553 16.9334 1 22.2973 1C27.6612 1 32.0623 5.3553 32.0623 10.765V10.8109C32.0623 11.7278 31.3288 12.4613 30.366 12.4613Z" fill="url(#paint2_linear)"/>
<path d="M29.3127 48.9999C30.604 48.9999 31.6508 47.9531 31.6508 46.6618C31.6508 45.3705 30.604 44.3237 29.3127 44.3237C28.0214 44.3237 26.9746 45.3705 26.9746 46.6618C26.9746 47.9531 28.0214 48.9999 29.3127 48.9999Z" fill="url(#paint3_linear)"/>
<path d="M16.8879 48.9999C18.1792 48.9999 19.226 47.9531 19.226 46.6618C19.226 45.3705 18.1792 44.3237 16.8879 44.3237C15.5966 44.3237 14.5498 45.3705 14.5498 46.6618C14.5498 47.9531 15.5966 48.9999 16.8879 48.9999Z" fill="url(#paint4_linear)"/>
<defs>
<linearGradient id="paint0_linear" x1="22.3156" y1="0.290081" x2="22.3156" y2="46.7156" gradientUnits="userSpaceOnUse">
<stop stop-color="#FFC100"/>
<stop offset="1" stop-color="#FF5722"/>
</linearGradient>
<linearGradient id="paint1_linear" x1="9.56092" y1="0.290131" x2="9.56092" y2="46.7157" gradientUnits="userSpaceOnUse">
<stop stop-color="#FFC100"/>
<stop offset="1" stop-color="#FF5722"/>
</linearGradient>
<linearGradient id="paint2_linear" x1="22.315" y1="0.290086" x2="22.315" y2="46.7157" gradientUnits="userSpaceOnUse">
<stop stop-color="#FFC100"/>
<stop offset="1" stop-color="#FF5722"/>
</linearGradient>
<linearGradient id="paint3_linear" x1="29.3291" y1="0.290195" x2="29.3291" y2="46.7157" gradientUnits="userSpaceOnUse">
<stop stop-color="#FFC100"/>
<stop offset="1" stop-color="#FF5722"/>
</linearGradient>
<linearGradient id="paint4_linear" x1="16.8943" y1="0.290195" x2="16.8943" y2="46.7157" gradientUnits="userSpaceOnUse">
<stop stop-color="#FFC100"/>
<stop offset="1" stop-color="#FF5722"/>
</linearGradient>
</defs>
</svg>
